<svg xmlns="http://www.w3.org/2000/svg" xmlns:xlink="http://www.w3.org/1999/xlink" width="253.004" height="59.788" viewBox="0 0 253.004 59.788"><defs><style>.a{fill:url(#a);}.b{fill:#231f20;}.c{fill:url(#b);}</style><linearGradient id="a" x1="0.086" y1="0.25" x2="0.919" y2="1.036" gradientUnits="objectBoundingBox"><stop offset="0" stop-color="#ea2227"/><stop offset="0.228" stop-color="#da2128"/><stop offset="0.669" stop-color="#b2202c"/><stop offset="0.928" stop-color="#971f2e"/><stop offset="1" stop-color="#971f2e"/></linearGradient><linearGradient id="b" x1="-0.002" y1="0.592" x2="0.942" y2="0.395" gradientUnits="objectBoundingBox"><stop offset="0" stop-color="#ea2227"/><stop offset="0.388" stop-color="#ea2427"/><stop offset="0.612" stop-color="#eb2d26"/><stop offset="0.794" stop-color="#ec3b26"/><stop offset="0.952" stop-color="#ed4e24"/><stop offset="1" stop-color="#ee5624"/></linearGradient></defs><path d="M122.572,33.814c-2.09-.627-3.867-1.15-3.867-2.4,0-1.045.836-1.672,2.613-1.672a11.23,11.23,0,0,1,3.867.836,2.941,2.941,0,0,0,3.658-1.463l.523-1.15a.691.691,0,0,0-.1-.627,13.579,13.579,0,0,0-7.524-2.195c-4.912,0-8.151,2.508-8.151,6.479,0,4.6,3.867,5.852,6.9,6.688,2.508.732,3.971,1.254,3.971,2.717,0,1.568-1.881,1.777-2.926,1.777a10.716,10.716,0,0,1-4.912-1.254,2.872,2.872,0,0,0-2.09-.209,2.542,2.542,0,0,0-1.568,1.359l-.523.941a.46.46,0,0,0,.1.523,13.444,13.444,0,0,0,8.674,3.031c5.121,0,8.465-2.613,8.465-6.688C129.887,36.009,125.812,34.859,122.572,33.814Z" transform="translate(-39.284 -2.572)"/><path d="M237.469,33.814c-2.09-.627-3.867-1.15-3.867-2.4,0-1.045.836-1.672,2.613-1.672a11.23,11.23,0,0,1,3.867.836,2.941,2.941,0,0,0,3.658-1.463l.523-1.15a.691.691,0,0,0-.1-.627,13.579,13.579,0,0,0-7.524-2.195c-4.912,0-8.151,2.508-8.151,6.479,0,4.6,3.867,5.852,6.9,6.688,2.508.732,3.971,1.254,3.971,2.717,0,1.568-1.881,1.777-2.926,1.777a10.717,10.717,0,0,1-4.912-1.254,2.637,2.637,0,0,0-3.658,1.15l-.522.941a.459.459,0,0,0,.1.523,13.444,13.444,0,0,0,8.674,3.031c5.121,0,8.465-2.613,8.465-6.688C244.785,36.009,240.709,34.859,237.469,33.814Z" transform="translate(-41.946 -2.572)"/><path d="M144.442,25.161c-3.24,0-5.643,1.045-7.315,3.135V20.145a3.144,3.144,0,0,0-3.135-3.135h-1.881a.45.45,0,0,0-.418.418V46.584a.45.45,0,0,0,.418.418H136.6a.45.45,0,0,0,.418-.418V36.238c0-3.553,2.2-6.061,5.539-6.061a4.23,4.23,0,0,1,4.6,4.6v11.7a.45.45,0,0,0,.418.418h4.494a.45.45,0,0,0,.418-.418V33.626C152.7,28.4,149.563,25.161,144.442,25.161Z" transform="translate(-39.731 -2.383)"/><path d="M166.192,25.354c-6.688,0-11.391,4.494-11.391,11.077s4.7,11.077,11.391,11.077,11.391-4.6,11.391-11.077C177.582,29.848,172.88,25.354,166.192,25.354Zm5.957,11.077c0,3.762-2.4,6.375-5.957,6.375s-5.957-2.508-5.957-6.375c0-3.762,2.4-6.375,5.957-6.375s5.956,2.614,5.956,6.376Z" transform="translate(-40.266 -2.577)"/><path d="M216.771,25.354a8.9,8.9,0,0,0-6.9,2.822,2.958,2.958,0,0,0-2.926-2.717h-2.09a.45.45,0,0,0-.418.418V54.406a.449.449,0,0,0,.418.418h1.672a3.367,3.367,0,0,0,3.344-3.344v-7a8.754,8.754,0,0,0,6.9,2.822c6.166,0,10.346-4.389,10.346-10.973C227.117,29.953,222.832,25.354,216.771,25.354Zm4.912,10.973c0,3.762-2.4,6.375-5.957,6.375-3.449,0-5.957-2.613-5.957-6.375,0-3.658,2.4-6.27,5.957-6.27a5.906,5.906,0,0,1,5.957,6.27Z" transform="translate(-41.416 -2.577)"/><path d="M192.059,25.354a8.9,8.9,0,0,0-6.9,2.822,2.958,2.958,0,0,0-2.926-2.717h-2.09a.45.45,0,0,0-.418.418V54.406a.45.45,0,0,0,.418.418h1.672a3.367,3.367,0,0,0,3.344-3.344v-7a8.754,8.754,0,0,0,6.9,2.822c6.166,0,10.346-4.389,10.346-10.973C202.509,29.953,198.224,25.354,192.059,25.354Zm4.912,10.973c0,3.762-2.4,6.375-5.957,6.375-3.449,0-5.957-2.613-5.957-6.375,0-3.658,2.4-6.27,5.957-6.27s5.956,2.613,5.956,6.27Z" transform="translate(-40.844 -2.577)"/><path d="M259.317,41.856c0-.1-.1-.209-.209-.314h-.418a6.293,6.293,0,0,1-2.926.836c-1.15,0-1.777-.418-1.777-2.4v-9.51h2.822a3.3,3.3,0,0,0,3.344-3.344V26.6a.45.45,0,0,0-.418-.418h-5.748V23.464a3.033,3.033,0,0,0-3.031-3.031H248.97a.45.45,0,0,0-.418.418v5.225h-2.508a.45.45,0,0,0-.418.418v3.344a.45.45,0,0,0,.418.418h2.508V40.6c0,4.807,3.24,6.584,6.27,6.584a11.089,11.089,0,0,0,5.434-1.568.382.382,0,0,0,.209-.523Z" transform="translate(-42.371 -2.463)"/><path d="M271.361,25.354a10.646,10.646,0,0,0-11.077,11.077c0,6.584,4.494,11.077,11.182,11.077a11.806,11.806,0,0,0,8.987-3.658.392.392,0,0,0,0-.627l-1.359-1.359a2.086,2.086,0,0,0-2.717-.314,8.015,8.015,0,0,1-4.6,1.463,5.872,5.872,0,0,1-5.852-4.285H281.08a.45.45,0,0,0,.418-.418c.313-4.389-.523-7.838-2.613-10.032C277.213,26.3,274.7,25.354,271.361,25.354Zm-5.539,8.987a5.415,5.415,0,0,1,5.539-4.494c3.031,0,5.016,1.672,5.33,4.494Z" transform="translate(-42.71 -2.577)"/><path d="M295.937,25.561a.949.949,0,0,0-.732-.314,8.179,8.179,0,0,0-6.27,3.135,3.033,3.033,0,0,0-3.031-3.031h-1.881a.45.45,0,0,0-.418.418v20.9a.449.449,0,0,0,.418.418h1.463a3.524,3.524,0,0,0,3.553-3.553V35.7c.313-3.449,3.031-5.643,6.793-5.434a.37.37,0,0,0,.418-.418V26.083a1.529,1.529,0,0,0-.313-.522Z" transform="translate(-43.25 -2.575)"/><path class="a" d="M99.416,55.856h0l-2.09-32.6a6.379,6.379,0,0,0-6.375-6.27H81.859v-.941a14,14,0,0,0-28.007,0V17.09l-8.047-.209a6.449,6.449,0,0,0-6.375,6.27l-1.88,31.66v.1a6.334,6.334,0,0,0,6.375,6.375h19.96A2.683,2.683,0,0,0,66.5,59.1a2.591,2.591,0,0,0-2.508-2.926H43.925a1.186,1.186,0,0,1-1.254-1.15L44.552,23.36v-.1A1.207,1.207,0,0,1,45.806,22l12.331.1h.836V16.041a8.885,8.885,0,0,1,17.765,0v2.508l.1,3.553H91.055a1.207,1.207,0,0,1,1.254,1.254v.1l1.568,30.515s.1,5.852.1,6.27V61.29a9.893,9.893,0,0,0,3.658-1.568,4.426,4.426,0,0,0,1.777-3.867" transform="translate(-37.55 -2.042)"/><line class="b" transform="translate(56.327 51.934)"/><path class="c" d="M99.869,56.41h0l-.209-3.24a3.814,3.814,0,0,1-1.36,2.717c-1.672,1.463-12.122,5.434-24.663-5.748a28.522,28.522,0,0,1-4.7-5.539,1.209,1.209,0,0,0-.732-.523,1.11,1.11,0,0,0-.836.1l-5.852,3.867L61.726,30.7l16.2,7.106-.941.627a.1.1,0,0,0-.1.1L74.9,39.787c-.627.418-1.254.732-1.881,1.15a1.361,1.361,0,0,0-.418,1.881c1.15,1.881,5.121,5.643,7.42,7.838a2.543,2.543,0,0,0,3.344,0,2.46,2.46,0,0,0,0-3.449A12.244,12.244,0,0,0,81.8,45.535c-1.986-1.777-3.24-3.135-3.449-3.344l2.613-1.463a3.586,3.586,0,0,0,1.672-3.344,3.55,3.55,0,0,0-2.195-3.031L62.353,26.417c-.209-.1-.418-.1-.627-.209a3.625,3.625,0,0,0-3.031.732,3.673,3.673,0,0,0-1.359,2.822L57.128,48.99a3.963,3.963,0,0,0,2.613,3.762,2.6,2.6,0,0,0,.836.1,3.523,3.523,0,0,0,1.777-.523l2.508-1.463.1-.1c.418-.313.732-.523,1.045-.732.627.627,1.254,1.359,1.881,1.986l.1.1a11.923,11.923,0,0,0,1.15,1.15A29.8,29.8,0,0,0,77.6,59.331a33.146,33.146,0,0,0,9,2.722c5.643.836,9.092,0,11.286-1.568a4.7,4.7,0,0,0,1.986-4.076" transform="translate(-38.004 -2.595)"/></svg>