<svg width="130" height="38" viewBox="0 0 130 38" fill="none" xmlns="http://www.w3.org/2000/svg">
<path fill-rule="evenodd" clip-rule="evenodd" d="M19.0547 0.755859C22.9027 0.755859 26.3065 1.06855 28.3772 1.54782C32.5058 2.41665 35.757 5.67718 36.6234 9.81757C37.1013 11.8942 37.4131 15.3077 37.4131 19.1667C37.4131 23.0257 37.1013 26.4392 36.6234 28.5158C35.757 32.6562 32.5058 35.9168 28.3772 36.7856C26.3065 37.2649 22.9027 37.5776 19.0547 37.5776C15.2067 37.5776 11.8029 37.2649 9.73218 36.7856C5.60359 35.9168 2.35235 32.6562 1.48599 28.5158C1.00809 26.4392 0.696289 23.0257 0.696289 19.1667C0.696289 15.3077 1.00809 11.8942 1.48599 9.81757C2.35235 5.67718 5.60359 2.41665 9.73218 1.54782C11.8029 1.06855 15.2067 0.755859 19.0547 0.755859ZM23.4662 29.0212C23.1177 28.1896 22.3783 27.5634 21.4785 27.374C20.9401 27.2494 20.0552 27.1681 19.0547 27.1681C18.0542 27.1681 17.1692 27.2494 16.6308 27.374C15.7375 27.562 15.0022 28.1807 14.6507 29.0034C14.5357 29.2728 14.2836 29.4665 13.9918 29.4401C13.8945 29.4313 13.8008 29.4226 13.7298 29.4155C12.2901 29.2718 11.1585 29.0712 10.5011 28.8372L10.4972 28.8355C10.056 28.6692 9.74203 28.2422 9.74203 27.7416C9.74203 27.7359 9.74207 27.7302 9.74215 27.7246C9.74224 27.7178 9.7424 27.7111 9.74261 27.7044C9.74362 27.6843 9.7448 27.6637 9.74614 27.6427L9.7474 27.6287C9.74865 27.6156 9.74944 27.6029 9.74976 27.5907C9.86183 26.088 10.7718 22.57 12.131 18.5546C13.6848 13.9641 15.3097 10.2478 16.0425 9.52291C16.1594 9.40078 16.2944 9.29849 16.4435 9.21961C16.5018 9.18627 16.5755 9.15438 16.6631 9.12429L16.67 9.12193C17.1514 8.95867 18.0387 8.84931 19.0538 8.84931C20.0706 8.84931 20.9579 8.95867 21.4385 9.12164L21.4462 9.12429C21.5338 9.15438 21.6076 9.18627 21.6658 9.21961C21.815 9.29849 21.9499 9.40078 22.0658 9.5216L22.0669 9.52291C22.7996 10.2478 24.4246 13.9641 25.9784 18.5546C27.3376 22.57 28.2475 26.088 28.3596 27.5907C28.3599 27.6029 28.3607 27.6156 28.362 27.6287L28.3632 27.6427C28.3639 27.6526 28.3645 27.6624 28.365 27.6721C28.3656 27.683 28.3662 27.6938 28.3668 27.7044C28.367 27.7108 28.3671 27.7172 28.3672 27.7237C28.3673 27.7296 28.3673 27.7356 28.3673 27.7416C28.3673 28.2422 28.0534 28.6692 27.6122 28.8355L27.6083 28.8372C26.9514 29.071 25.8212 29.2714 24.3833 29.4151C24.3067 29.4228 24.2038 29.4323 24.0983 29.4419C23.8178 29.4671 23.575 29.281 23.4662 29.0212Z" fill="#00B388"/>
<path fill-rule="evenodd" clip-rule="evenodd" d="M59.342 13.0229H62.8507V28.3776H59.342V25.6796C58.2456 27.5933 56.3659 28.6913 53.9224 28.6913C49.8498 28.6913 46.5918 25.1149 46.5918 20.6914C46.5918 16.268 49.8498 12.7229 53.9224 12.7229C56.3659 12.7229 58.2456 13.8209 59.342 15.7346V13.0229ZM111.872 13.0229H115.381V28.3776H111.872V25.6796C110.776 27.5933 108.896 28.6913 106.452 28.6913C102.38 28.6913 99.1217 25.1149 99.1217 20.6914C99.1217 16.268 102.38 12.7229 106.452 12.7229C108.896 12.7229 110.776 13.8209 111.872 15.7346V13.0229ZM54.7527 25.3543C57.4155 25.3543 59.4204 23.3465 59.4204 20.6799C59.4204 18.0446 57.4155 16.0368 54.7527 16.0368C52.1525 16.0368 50.0849 18.1074 50.0849 20.6799C50.0849 23.2838 52.1525 25.3543 54.7527 25.3543ZM107.099 25.3543C109.762 25.3543 111.766 23.3465 111.766 20.6799C111.766 18.0446 109.762 16.0368 107.099 16.0368C104.499 16.0368 102.431 18.1074 102.431 20.6799C102.431 23.2838 104.499 25.3543 107.099 25.3543ZM68.104 5.35864C69.3257 5.35864 70.3595 6.39392 70.3595 7.58606C70.3595 8.84094 69.3257 9.84485 68.104 9.84485C66.8822 9.84485 65.8797 8.84094 65.8797 7.58606C65.8797 6.39392 66.8822 5.35864 68.104 5.35864ZM66.381 12.9807H69.8583V28.3353H66.381V12.9807ZM80.7813 12.6806C81.4511 12.6806 82.0962 12.7802 82.5612 12.9573C82.8349 13.0615 83.0764 13.1766 83.2638 13.2738L81.8488 16.2404C81.4029 16.1051 80.9198 16.0374 80.4367 16.0374C78.745 16.0374 76.8654 17.4492 76.8654 20.1472V28.3353H73.388V12.9806H76.8654V15.1904C77.5546 13.7159 79.2776 12.6806 80.7813 12.6806ZM98.2456 24.4451C97.0865 26.9863 94.3923 28.649 91.1969 28.649C86.6545 28.649 83.1771 25.2294 83.1771 20.6805C83.1771 16.1315 86.6231 12.6806 91.1656 12.6806C94.1417 12.6806 96.6479 14.1551 97.7757 16.4139L94.8309 18.0766C94.2043 16.8531 92.8259 16.0374 91.1656 16.0374C88.5341 16.0374 86.6231 18.0452 86.6231 20.6805C86.6231 23.2844 88.5654 25.2922 91.1969 25.2922C92.9826 25.2922 94.455 24.4451 95.1442 23.0334L98.2456 24.4451ZM122.388 5.35864V28.3354H118.91V5.35864H122.388ZM129.395 5.35864V28.3354H125.917V5.35864H129.395Z" fill="#090E13"/>
</svg>
